<?xml version="1.0" encoding="UTF-8" standalone="no"?>
<!DOCTYPE svg PUBLIC "-//W3C//DTD SVG 1.1//EN" "http://www.w3.org/Graphics/SVG/1.1/DTD/svg11.dtd">
<svg version="1.1" xmlns="http://www.w3.org/2000/svg" xmlns:xlink="http://www.w3.org/1999/xlink" preserveAspectRatio="xMidYMid meet" viewBox="0 0 640 640" width="640" height="640"><defs><path d="M485.41 250.51C485.41 346.23 405.63 423.95 307.36 423.95C209.1 423.95 129.32 346.23 129.32 250.51C129.32 154.78 209.1 77.06 307.36 77.06C405.63 77.06 485.41 154.78 485.41 250.51Z" id="b2fJuupEAo"></path><radialGradient id="gradientb7b4JQCU5" gradientUnits="userSpaceOnUse" cx="271.76" cy="197.67" dx="488.28" dy="436.59" r="322.43"><stop style="stop-color: #fca464;stop-opacity: 1" offset="0%"></stop><stop style="stop-color: #f87d7b;stop-opacity: 1" offset="100%"></stop></radialGradient><path d="M527.91 392.36C527.91 470.66 464.86 534.22 387.2 534.22C309.54 534.22 246.49 470.66 246.49 392.36C246.49 314.07 309.54 250.51 387.2 250.51C464.86 250.51 527.91 314.07 527.91 392.36Z" id="d3jgR6HqW"></path><radialGradient id="gradienta9cApb59D" gradientUnits="userSpaceOnUse" cx="333.21" cy="315.98" dx="456.11" dy="522.74" r="240.53"><stop style="stop-color: #ffbd71;stop-opacity: 1" offset="0%"></stop><stop style="stop-color: #ec9632;stop-opacity: 1" offset="100%"></stop></radialGradient><path d="M287.84 432.57C287.84 460.78 265.19 483.68 237.3 483.68C209.4 483.68 186.76 460.78 186.76 432.57C186.76 404.36 209.4 381.45 237.3 381.45C265.19 381.45 287.84 404.36 287.84 432.57Z" id="b1LaLvo2mD"></path><radialGradient id="gradientiFA0DcCsZ" gradientUnits="userSpaceOnUse" cx="252.23" cy="395.24" dx="203.99" dy="472.2" r="90.83"><stop style="stop-color: #fbe08c;stop-opacity: 1" offset="0%"></stop><stop style="stop-color: #f9d35a;stop-opacity: 1" offset="100%"></stop></radialGradient></defs><g><g><g><use xlink:href="#b2fJuupEAo" opacity="1" fill="url(#gradientb7b4JQCU5)"></use></g><g><use xlink:href="#d3jgR6HqW" opacity="1" fill="url(#gradienta9cApb59D)"></use></g><g><use xlink:href="#b1LaLvo2mD" opacity="1" fill="url(#gradientiFA0DcCsZ)"></use></g></g></g></svg>